<svg width="23" height="23" viewBox="0 0 23 23" fill="none" xmlns="http://www.w3.org/2000/svg">
<path d="M20.1308 8.41939C20.0732 8.24958 19.967 8.10037 19.8256 7.99018C19.6841 7.87999 19.5134 7.81365 19.3347 7.79934L14.1055 7.38383L11.8427 2.37482C11.7706 2.21349 11.6534 2.07646 11.5052 1.98028C11.357 1.88409 11.1841 1.83286 11.0074 1.83276C10.8307 1.83267 10.6577 1.88371 10.5094 1.97973C10.3611 2.07575 10.2437 2.21265 10.1715 2.3739L7.90866 7.38383L2.67951 7.79934C2.50382 7.81326 2.33586 7.8775 2.19572 7.98438C2.05559 8.09125 1.94921 8.23624 1.88931 8.40199C1.82941 8.56774 1.81854 8.74724 1.85799 8.91901C1.89744 9.09078 1.98553 9.24755 2.11175 9.37056L5.97605 13.1376L4.60937 19.0556C4.56788 19.2348 4.58118 19.4222 4.64755 19.5937C4.71392 19.7652 4.8303 19.9128 4.98159 20.0173C5.13288 20.1218 5.31208 20.1785 5.49596 20.1799C5.67983 20.1813 5.85988 20.1274 6.01274 20.0252L11.0071 16.6956L16.0014 20.0252C16.1577 20.1289 16.3419 20.1823 16.5294 20.1782C16.7169 20.1741 16.8986 20.1126 17.0502 20.0022C17.2017 19.8917 17.3158 19.7374 17.3771 19.5602C17.4383 19.3829 17.4438 19.1912 17.3929 19.0107L15.7152 13.1404L19.8758 9.39625C20.1482 9.15043 20.2482 8.76702 20.1308 8.41939V8.41939Z" fill="#F3CD03"/>
</svg>
